<?xml version="1.0" standalone="no"?>
<!DOCTYPE svg PUBLIC "-//W3C//DTD SVG 20010904//EN"
 "http://www.w3.org/TR/2001/REC-SVG-20010904/DTD/svg10.dtd">
<svg version="1.0" xmlns="http://www.w3.org/2000/svg"
 width="232.000000pt" height="218.000000pt" viewBox="0 0 232.000000 218.000000"
 preserveAspectRatio="xMidYMid meet">

<g transform="translate(0.000000,218.000000) scale(0.100000,-0.100000)"
fill="#000000" stroke="none">
<path d="M20 1095 l0 -1085 1098 -2 c603 -2 1121 -2 1150 0 l52 3 0 1085 0
1084 -1150 0 -1150 0 0 -1085z m605 988 c-8 -27 -125 -426 -260 -888 -135
-462 -250 -851 -255 -865 -5 -15 -9 345 -9 888 l-1 912 269 0 270 0 -14 -47z
m895 42 c0 -7 -384 -625 -386 -622 -8 10 -368 605 -371 615 -4 9 75 12 376 12
210 0 381 -2 381 -5z m729 -977 l0 -983 -260 930 c-142 512 -266 954 -273 983
l-14 52 274 0 274 0 -1 -982z m-345 -45 c152 -546 276 -997 276 -1003 0 -7
-81 -9 -251 -8 l-251 3 -247 586 c-136 322 -251 591 -255 597 -9 16 -48 15
-69 0 -9 -7 -130 -276 -269 -598 l-253 -585 -229 -3 -229 -2 6 27 c17 75 563
1920 570 1924 4 2 97 -142 206 -321 186 -305 199 -325 226 -325 27 0 43 22
254 362 133 213 228 358 232 350 4 -6 131 -458 283 -1004z m-640 -230 c58
-139 106 -254 106 -257 0 -4 -106 -6 -236 -6 -221 0 -236 1 -230 18 4 9 57
135 119 279 99 230 113 259 123 240 7 -12 59 -135 118 -274z m236 -559 c50
-119 89 -218 87 -220 -2 -2 -209 -3 -459 -2 l-456 3 84 195 c46 107 88 205 94
218 l10 22 274 0 274 0 92 -216z"/>
</g>
</svg>
